<svg width="13" height="13" viewBox="0 0 13 13" fill="none" xmlns="http://www.w3.org/2000/svg">
<path d="M12.4942 2.53184H10.2556V1.01698C10.2556 0.456599 9.79938 0 9.23899 0H3.76394C3.20355 0 2.74755 0.456599 2.74755 1.01698V2.53303L0.505015 2.53382C0.370078 2.53382 0.243275 2.58641 0.147637 2.68245C0.0521927 2.7777 -0.000399193 2.90489 2.28172e-06 3.03964C2.28172e-06 3.31824 0.226622 3.54545 0.505416 3.54545L1.64742 3.54526V11.9877C1.64742 12.5481 2.10342 13.0047 2.66402 13.0047H10.3393C10.8997 13.0047 11.3559 12.5481 11.3559 11.9877V3.8715H11.3536L11.3534 3.54368L12.4946 3.54349C12.7734 3.54349 13 3.31627 13 3.03708C12.9996 2.75846 12.7728 2.53184 12.4942 2.53184ZM5.05338 11.0081C4.77457 11.0081 4.54797 10.7808 4.54797 10.5022L4.54558 5.09088C4.54558 4.81228 4.7722 4.58487 5.0512 4.58487C5.33001 4.58487 5.55661 4.81228 5.55661 5.09088L5.55899 10.5014C5.55899 10.7801 5.33198 11.0075 5.05338 11.0081ZM7.95214 11.0081C7.67313 11.0081 7.44632 10.7808 7.44632 10.5022L7.44394 5.09088C7.44394 4.81228 7.67056 4.58487 7.94935 4.58487C8.22836 4.58487 8.45498 4.81228 8.45498 5.09088L8.45736 10.5014C8.45756 10.7801 8.23094 11.0075 7.95214 11.0081ZM3.76097 1.64206C3.76097 1.2956 4.04294 1.0142 4.38902 1.0142H8.61393C8.96039 1.0142 9.24238 1.29559 9.24238 1.64206V2.53245L3.76097 2.53305V1.64206Z" fill="#CDCDCD"/>
</svg>
