<svg width="18" height="14" viewBox="0 0 18 14" fill="none" xmlns="http://www.w3.org/2000/svg">
<path d="M17.8006 2.626L7.20488 13.2964C6.93906 13.564 6.50794 13.564 6.24167 13.2964L6.02808 13.081L6.02721 13.082L5.79606 12.8477L4.7968 11.8414C4.79066 11.8348 4.78844 11.826 4.78231 11.819L0.199397 7.17021C-0.0664657 6.90216 -0.0664657 6.46777 0.199397 6.19991L1.64427 4.74494C1.91013 4.47732 2.34166 4.47732 2.60752 4.74494L6.75404 9.00528L15.3925 0.200709C15.6584 -0.0669031 16.0899 -0.0669031 16.3558 0.200709L17.8006 1.65569C18.0665 1.92375 18.0665 2.35794 17.8006 2.626Z" fill="#384A8C"/>
</svg>
