<svg width="13" height="11" viewBox="0 0 13 11" fill="none" xmlns="http://www.w3.org/2000/svg">
<path fill-rule="evenodd" clip-rule="evenodd" d="M7.12775 2.64771C1.9813 2.64771 0.315306 5.8745 0.00190003 9.43662C-0.0365884 9.88738 0.518743 10.1402 0.843146 9.79942C2.23972 8.3372 3.82875 7.55661 7.13875 7.55661V9.71697C7.13875 9.76644 7.14425 9.81042 7.16074 9.85439C7.17724 9.89837 7.19373 9.94235 7.22122 9.98083C7.24872 10.0193 7.27621 10.0578 7.3147 10.0853C7.35318 10.1128 7.39167 10.1402 7.43566 10.1567C7.47415 10.1787 7.52363 10.1897 7.56762 10.1952C7.61161 10.2007 7.66109 10.1952 7.70508 10.1897C7.74907 10.1787 7.79305 10.1677 7.83704 10.1457C7.88102 10.1293 7.91951 10.1018 7.9525 10.0688L12.846 5.44573C12.8735 5.42374 12.8955 5.40175 12.912 5.37427C12.934 5.35228 12.9505 5.3193 12.9615 5.29181C12.9637 5.28508 12.966 5.27858 12.9682 5.27221C12.9767 5.24738 12.9846 5.22461 12.989 5.19836L12.989 5.19835C12.9945 5.16537 13 5.13239 13 5.09941C13 5.06644 12.9945 5.03346 12.989 5.00048L12.989 5.00047V5.00046C12.9835 4.96748 12.978 4.9345 12.9615 4.90701L12.912 4.82456C12.89 4.79708 12.868 4.77509 12.846 4.75311L12.846 4.7531L7.94151 0.130044C7.90852 0.102559 7.87003 0.0750732 7.82604 0.0530849C7.78206 0.0310965 7.73807 0.0146051 7.69408 0.00910799C7.65009 -0.00188619 7.60061 -0.00188637 7.55662 0.00361072C7.51264 0.00910781 7.46865 0.0255984 7.42466 0.0420897C7.38068 0.0585809 7.34219 0.0860668 7.3037 0.113552C7.26521 0.146535 7.23772 0.179518 7.21023 0.217998C7.18274 0.256477 7.16624 0.300453 7.14975 0.34443C7.13325 0.388407 7.12775 0.432384 7.12775 0.481858V2.64771Z" fill="#384A8C"/>
</svg>
