<svg width="18" height="18" viewBox="0 0 18 18" fill="none" xmlns="http://www.w3.org/2000/svg">
<path d="M2.57143 1.2C2.23044 1.2 1.90341 1.32643 1.66229 1.55147C1.42117 1.77652 1.28571 2.08174 1.28571 2.4V15.6C1.28571 15.9183 1.42117 16.2235 1.66229 16.4485C1.90341 16.6736 2.23044 16.8 2.57143 16.8H15.4286C15.7696 16.8 16.0966 16.6736 16.3377 16.4485C16.5788 16.2235 16.7143 15.9183 16.7143 15.6V2.4C16.7143 2.08174 16.5788 1.77652 16.3377 1.55147C16.0966 1.32643 15.7696 1.2 15.4286 1.2H2.57143ZM2.57143 0H15.4286C16.1106 0 16.7646 0.252856 17.2468 0.702944C17.7291 1.15303 18 1.76348 18 2.4V15.6C18 16.2365 17.7291 16.847 17.2468 17.2971C16.7646 17.7471 16.1106 18 15.4286 18H2.57143C1.88944 18 1.23539 17.7471 0.753154 17.2971C0.270918 16.847 0 16.2365 0 15.6V2.4C0 1.76348 0.270918 1.15303 0.753154 0.702944C1.23539 0.252856 1.88944 0 2.57143 0ZM3.85714 6V4.8H14.1429V6H3.85714ZM3.69643 9.6V8.4H11.7321V9.6H3.69643ZM3.93943 13.2V12H8.11543V13.2H3.93943Z" fill="#595959"/>
</svg>
