<svg width="15" height="17" viewBox="0 0 15 17" fill="none" xmlns="http://www.w3.org/2000/svg">
<path d="M14.3519 2.96296H11.1111V1.48148C11.1111 0.663241 10.4478 0 9.62963 0H5.37037C4.55222 0 3.88889 0.663241 3.88889 1.48148V2.96296H0.648148C0.476249 2.96296 0.31139 3.03125 0.189838 3.1528C0.0682868 3.27435 0 3.43921 0 3.61111C0 3.78301 0.0682868 3.94787 0.189838 4.06942C0.31139 4.19097 0.476249 4.25926 0.648148 4.25926H1.64713L2.2525 15.0038C2.2875 15.6257 2.77361 16.1111 3.36157 16.1111H11.6384C12.2264 16.1111 12.7126 15.6257 12.7476 15.0038L13.3529 4.25926H14.3519C14.5238 4.25926 14.6886 4.19097 14.8102 4.06942C14.9317 3.94787 15 3.78301 15 3.61111C15 3.43921 14.9317 3.27435 14.8102 3.1528C14.6886 3.03125 14.5238 2.96296 14.3519 2.96296ZM5.18519 1.48148C5.18519 1.37935 5.26824 1.2963 5.37037 1.2963H9.62963C9.73176 1.2963 9.81482 1.37935 9.81482 1.48148V2.96296H5.18519V1.48148ZM11.4599 14.8148H3.54009L2.94546 4.25926H12.0545L11.4599 14.8148Z" fill="#384A8C"/>
</svg>
