<svg width="15" height="15" viewBox="0 0 15 15" fill="none" xmlns="http://www.w3.org/2000/svg">
<path d="M9.10579 13.9293H2.52388C2.33292 13.9293 2.14384 13.8917 1.96743 13.8185C1.79103 13.7454 1.63076 13.6383 1.49579 13.5032C1.36081 13.3681 1.25378 13.2077 1.1808 13.0313C1.10782 12.8548 1.07033 12.6657 1.07047 12.4747V2.52539C1.07032 2.33441 1.10781 2.14528 1.18078 1.96879C1.25375 1.79231 1.36078 1.63193 1.49575 1.49682C1.63072 1.36171 1.79099 1.25451 1.9674 1.18136C2.14381 1.1082 2.3329 1.07052 2.52388 1.07047H12.4732C12.6643 1.06998 12.8536 1.1074 13.0302 1.18056C13.2067 1.25371 13.367 1.36115 13.5018 1.49666C13.7763 1.77123 13.9264 2.13633 13.9266 2.52479L13.9039 9.10548V9.10723C13.9052 9.24848 13.9621 9.38352 14.0624 9.48303C14.1626 9.58254 14.2981 9.63849 14.4393 9.63871C14.5806 9.63893 14.7162 9.58342 14.8168 9.48422C14.9173 9.38503 14.9747 9.25017 14.9764 9.10893L14.9986 2.52714V2.52539C14.9988 2.19371 14.9335 1.86525 14.8067 1.55879C14.6798 1.25232 14.4938 0.973867 14.2593 0.739333C14.0247 0.504799 13.7463 0.318786 13.4398 0.191927C13.1334 0.0650678 12.8049 -0.000150277 12.4732 7.4444e-07H2.52388C2.19224 -0.000254061 1.86381 0.0649042 1.55738 0.191745C1.25096 0.318586 0.97256 0.504619 0.738126 0.739194C0.503692 0.973768 0.317825 1.25228 0.191168 1.55878C0.0645104 1.86528 -0.00045106 2.19375 2.35727e-06 2.52539V12.4747C-0.000411277 12.8063 0.0645816 13.1348 0.191261 13.4413C0.31794 13.7477 0.503818 14.0262 0.738254 14.2607C0.972691 14.4953 1.25108 14.6813 1.55749 14.8081C1.86391 14.9349 2.19232 15.0001 2.52394 14.9998H9.10579C9.24774 14.9998 9.38388 14.9434 9.48425 14.843C9.58463 14.7427 9.64102 14.6065 9.64102 14.4646C9.64102 14.3226 9.58463 14.1865 9.48425 14.0861C9.38388 13.9857 9.24774 13.9293 9.10579 13.9293Z" fill="#384A8C"/>
<path d="M14.8432 14.0863L12.7995 12.0426C13.2673 11.385 13.4709 10.5757 13.37 9.77501C13.2692 8.97435 12.8712 8.24081 12.2549 7.71979C11.6386 7.19878 10.8491 6.92831 10.0428 6.96202C9.23655 6.99572 8.47236 7.33113 7.90173 7.90175C7.3311 8.47238 6.9957 9.23657 6.96199 10.0429C6.92829 10.8491 7.19875 11.6387 7.71977 12.2549C8.24079 12.8712 8.97432 13.2692 9.77498 13.3701C10.5756 13.4709 11.385 13.2673 12.0426 12.7995L14.0862 14.8432C14.1866 14.9436 14.3228 15 14.4647 15C14.6067 15 14.7428 14.9436 14.8432 14.8432C14.9436 14.7428 15 14.6067 15 14.4647C15 14.3228 14.9436 14.1866 14.8432 14.0863ZM10.1798 12.3233C9.68395 12.3233 9.20341 12.1514 8.82009 11.8368C8.43677 11.5222 8.17439 11.0844 8.07766 10.598C7.98093 10.1117 8.05582 9.60681 8.28959 9.16948C8.52336 8.73215 8.90154 8.38941 9.35968 8.19965C9.81783 8.00989 10.3276 7.98486 10.8021 8.12882C11.2767 8.27278 11.6866 8.57682 11.9621 8.98914C12.2376 9.40146 12.3616 9.89655 12.313 10.3901C12.2644 10.8836 12.0461 11.3449 11.6955 11.6956C11.4969 11.8952 11.2607 12.0535 11.0006 12.1613C10.7404 12.269 10.4615 12.3241 10.1799 12.3233H10.1798ZM11.7872 4.82615C12.0827 4.82615 12.3223 4.58502 12.3224 4.28946C12.3225 3.99391 12.0828 3.75248 11.7872 3.75242L3.21541 3.74963C3.07337 3.74986 2.93722 3.80644 2.83687 3.90697C2.73652 4.00749 2.68016 4.14373 2.68018 4.28577C2.68018 4.58139 2.91973 4.82306 3.21535 4.82306L11.7872 4.82615ZM6.42976 8.03754C6.50005 8.03754 6.56965 8.0237 6.63459 7.9968C6.69953 7.9699 6.75853 7.93048 6.80823 7.88077C6.85793 7.83107 6.89736 7.77207 6.92426 7.70713C6.95115 7.6422 6.965 7.5726 6.965 7.50231C6.965 7.43202 6.95115 7.36242 6.92426 7.29748C6.89736 7.23255 6.85793 7.17354 6.80823 7.12384C6.75853 7.07414 6.69953 7.03472 6.63459 7.00782C6.56965 6.98092 6.50005 6.96708 6.42976 6.96708H3.21535C3.07353 6.96708 2.93752 7.02341 2.83724 7.12369C2.73697 7.22397 2.68063 7.35998 2.68063 7.50179C2.68063 7.64361 2.73697 7.77962 2.83724 7.8799C2.93752 7.98018 3.07353 8.03651 3.21535 8.03651L6.42976 8.03754ZM3.21565 10.1785C3.07374 10.1785 2.93764 10.2348 2.83729 10.3352C2.73694 10.4355 2.68057 10.5716 2.68057 10.7136C2.68057 10.8555 2.73694 10.9916 2.83729 11.0919C2.93764 11.1923 3.07374 11.2486 3.21565 11.2486L5.35857 11.2489C5.42927 11.2497 5.49942 11.2364 5.56495 11.2099C5.63049 11.1833 5.69011 11.1441 5.74037 11.0943C5.79063 11.0446 5.83053 10.9854 5.85776 10.9202C5.88499 10.8549 5.89901 10.7849 5.89901 10.7142C5.89901 10.6435 5.88499 10.5735 5.85776 10.5083C5.83053 10.443 5.79063 10.3838 5.74037 10.3341C5.69011 10.2844 5.63049 10.2451 5.56495 10.2186C5.49942 10.192 5.42927 10.1787 5.35857 10.1795L3.21565 10.1785Z" fill="#384A8C"/>
</svg>
